# xmcd
#
# Track frame offsets: 
#        150
#        17946
#        32617
#        58251
#
# Disc length: 1127 seconds
#
# Revision: 0
# Processed by: cddbd v1.4PL0 Copyright (c) Steve Scherf et al.
# Submitted via: ExactAudioCopy v0.95a3
#
DISCID=2f046504
DTITLE=Steve Marriott and The Official Receivers - Steve Marriott - Ex
DTITLE=tended Play
DYEAR=1999
DGENRE=Blues
TTITLE0=Whatcha Gonna Do About It
TTITLE1=Tin Soldier
TTITLE2=Fool For A Pretty Face
TTITLE3=All Or Nothing
EXTD=
EXTT0=
EXTT1=
EXTT2=
EXTT3=
PLAYORDER=
